<?xml version="1.0" encoding="utf-8"?>
<!-- Generator: Adobe Illustrator 20.1.0, SVG Export Plug-In . SVG Version: 6.00 Build 0)  -->
<!DOCTYPE svg PUBLIC "-//W3C//DTD SVG 1.1//EN" "http://www.w3.org/Graphics/SVG/1.1/DTD/svg11.dtd">
<svg version="1.1" id="Layer_1" xmlns="http://www.w3.org/2000/svg" xmlns:xlink="http://www.w3.org/1999/xlink" x="0px" y="0px"
	 viewBox="0 0 35 25.6" style="enable-background:new 0 0 35 25.6;" xml:space="preserve">
<style type="text/css">
	.st0{fill:#F36F23;}
</style>
<g>
	<path class="st0" d="M9.8,16.9c-1.5,0-2.7-1.2-2.7-2.7s1.2-2.7,2.7-2.7s2.7,1.2,2.7,2.7S11.3,16.9,9.8,16.9 M9.8,12.9
		c-0.7,0-1.3,0.6-1.3,1.3c0,0.7,0.6,1.3,1.3,1.3c0.7,0,1.3-0.6,1.3-1.3C11.1,13.5,10.5,12.9,9.8,12.9"/>
	<path class="st0" d="M16.8,9.2c-1.5,0-2.7-1.2-2.7-2.7s1.2-2.7,2.7-2.7c1.5,0,2.7,1.2,2.7,2.7S18.3,9.2,16.8,9.2 M16.8,5.2
		c-0.7,0-1.3,0.6-1.3,1.3s0.6,1.3,1.3,1.3c0.7,0,1.3-0.6,1.3-1.3S17.5,5.2,16.8,5.2"/>
	<path class="st0" d="M24,16.9c-1.5,0-2.7-1.2-2.7-2.7s1.2-2.7,2.7-2.7c1.5,0,2.7,1.2,2.7,2.7S25.5,16.9,24,16.9 M24,12.9
		c-0.7,0-1.3,0.6-1.3,1.3c0,0.7,0.6,1.3,1.3,1.3c0.7,0,1.3-0.6,1.3-1.3C25.3,13.5,24.7,12.9,24,12.9"/>
	<path class="st0" d="M32.3,5.4c-1.5,0-2.7-1.2-2.7-2.7c0-1.5,1.2-2.7,2.7-2.7C33.8,0,35,1.2,35,2.7C35,4.2,33.8,5.4,32.3,5.4
		 M32.3,1.4c-0.7,0-1.3,0.6-1.3,1.3S31.5,4,32.3,4c0.7,0,1.3-0.6,1.3-1.3S33,1.4,32.3,1.4"/>
	<path class="st0" d="M10.8,13.2c-0.2,0-0.4-0.1-0.5-0.2c-0.3-0.3-0.3-0.7,0-1l4.5-4.5c0.3-0.3,0.7-0.3,1,0c0.3,0.3,0.3,0.7,0,1
		L11.3,13C11.2,13.1,11,13.2,10.8,13.2"/>
	<path class="st0" d="M22.8,13.2c-0.2,0-0.4-0.1-0.5-0.2l-4.6-4.6c-0.3-0.3-0.3-0.7,0-1c0.3-0.3,0.7-0.3,1,0l4.6,4.6
		c0.3,0.3,0.3,0.7,0,1C23.2,13.2,23,13.2,22.8,13.2"/>
	<path class="st0" d="M25.5,13.5c-0.1,0-0.3,0-0.4-0.1c-0.3-0.2-0.4-0.7-0.2-1l6-8.3c0.2-0.3,0.7-0.4,1-0.2c0.3,0.2,0.4,0.7,0.2,1
		l-6,8.3C25.9,13.4,25.7,13.5,25.5,13.5"/>
	<path class="st0" d="M2.9,11c-0.4,0-0.7-0.3-0.7-0.7V2.5c0-0.4,0.3-0.7,0.7-0.7s0.7,0.3,0.7,0.7v7.8C3.6,10.6,3.2,11,2.9,11"/>
	<path class="st0" d="M2.9,14.9c-0.2,0-0.4-0.1-0.5-0.2c-0.1-0.1-0.2-0.3-0.2-0.5c0-0.2,0.1-0.4,0.2-0.5c0.3-0.3,0.7-0.3,1,0
		c0.1,0.1,0.2,0.3,0.2,0.5c0,0.2-0.1,0.4-0.2,0.5C3.2,14.8,3,14.9,2.9,14.9"/>
	<path class="st0" d="M30.9,23.4h-28c-0.4,0-0.7-0.3-0.7-0.7v-5.1c0-0.4,0.3-0.7,0.7-0.7c0.4,0,0.7,0.3,0.7,0.7V22h27.3
		c0.4,0,0.7,0.3,0.7,0.7C31.6,23.1,31.2,23.4,30.9,23.4"/>
	<path class="st0" d="M0.7,5.8c-0.2,0-0.3,0-0.4-0.2C0,5.5-0.1,5,0.2,4.7L2.3,2c0.2-0.3,0.7-0.3,1-0.1c0.3,0.2,0.3,0.7,0.1,1
		L1.2,5.6C1.1,5.8,0.9,5.8,0.7,5.8"/>
	<path class="st0" d="M5,5.8c-0.2,0-0.4-0.1-0.5-0.3L2.3,2.9c-0.2-0.3-0.2-0.7,0.1-1c0.3-0.2,0.7-0.2,1,0.1l2.2,2.7
		c0.2,0.3,0.2,0.7-0.1,1C5.3,5.8,5.2,5.8,5,5.8"/>
	<path class="st0" d="M31.1,23.4c-0.2,0-0.3,0-0.4-0.2L28,21.1c-0.3-0.2-0.4-0.7-0.1-1c0.2-0.3,0.7-0.4,1-0.1l2.7,2.1
		c0.3,0.2,0.4,0.7,0.1,1C31.5,23.3,31.3,23.4,31.1,23.4"/>
	<path class="st0" d="M28.4,25.6c-0.2,0-0.4-0.1-0.5-0.3c-0.2-0.3-0.2-0.7,0.1-1l2.7-2.1c0.3-0.2,0.7-0.2,1,0.1
		c0.2,0.3,0.2,0.7-0.1,1l-2.7,2.1C28.7,25.5,28.6,25.6,28.4,25.6"/>
</g>
</svg>
